<svg xmlns="http://www.w3.org/2000/svg" width="1186.648" height="652.433" viewBox="0 0 313.967 172.623"><path d="M56.537 1.463S3.832 24.043 2.619 26.055l.287 67.6 4.278 73.978 59.536 2.097 38.147-38.123-.733-124.313zm87.839 15.675c-5.63.018-17.334.826-18.088 2.711l-.447 93.572 55.418 2.01.224 13.906 20.494 1.752s.606-13.158.574-14.278c-.032-1.12 58.93-1.781 58.93-1.781s2.554-87.855 2.554-90.957c0-3.103-.894-4.97-3.64-5.114-2.745-.144-109.973-1.552-114.028-1.782a35.048 35.048 0 0 0-1.991-.04zm145.61 118.156c-6.452.011-12.937 1.708-15.759 5.069-5.312 6.326-7.543 14.198-4.143 19.026 6.71 7.521 29.87.144 36.05-4.51 6.18-4.652 4.94-10.055-1.682-15.664-3.104-2.629-8.772-3.931-14.466-3.921zm-162.039 6.17s-16.236 18.787-17.494 20.157c-1.257 1.37-.655 3.458 1.222 4.494 0 0 24.152 1.753 31.287 1.259 7.136-.494 106.68.27 106.68.27s7.56-21.878 6.817-22.26c-.744-.383-128.512-3.92-128.512-3.92z" fill="#fff" paint-order="markers stroke fill"/><path d="M218.07 172.086c-39.952-1.095-85.328-1.892-96.127-1.688-9.196.177-11.075-.124-13.103-2.076-1.3-1.254-2.38-3.138-2.396-4.188 0-1.05 3.502-5.5 7.83-9.89 4.325-4.391 8.186-9.063 8.577-10.383 1.327-4.455 11.066-5.49 41.892-4.455 13.362.448 38.837.982 56.613 1.185 29.592.337 32.58.559 35.467 2.623 1.73 1.24 3.337 3.393 3.57 4.784.498 2.975-4.62 17.74-7.345 21.196-2.495 3.16-8.136 3.627-34.977 2.892zm34.23-15.657c1.439-4.073 2.35-8.065 2.025-8.87-.886-2.187-7.027-2.58-48.372-3.094-20.762-.258-46.903-.719-58.095-.842-17.08-.187-19.2-1.517-23.407 4.229-1.796 2.453-5.388 6.965-8.225 9.854-2.837 2.889-5.154 5.599-5.144 6.022 0 .423 2.494.77 5.529.77 26.623 0 103.623.949 114.7 1.413 9.556.4 14.644.165 16.16-.746 1.219-.732 3.39-4.663 4.83-8.736zm-42.54 5.783c-11.173.062-35.222-.53-53.443-1.317-26.32-1.136-32.19-1.671-28.578-2.607 2.992-.775 9.936-.794 20.323-.057 8.676.616 33.196 1.224 54.484 1.35 25.867.155 39.15.655 40.035 1.51.978.943-.48 1.242-5.588 1.143-3.802-.074-16.055-.084-27.232-.023zm-17.525-5.954a9016.81 9016.81 0 0 0-38.354-1.585c-13.102-.515-24.615-1.419-25.583-2.01-1.168-.71.873-.915 6.046-.607 4.296.256 30.175.926 57.512 1.49 27.334.562 50.205 1.472 50.824 2.02 1.34 1.193-29.717 1.618-50.445.692zm37.968-5.883c-.352-.34-18.086-.83-39.407-1.086-37.086-.446-66.81-1.645-53.891-2.173 12.724-.52 101.204.246 103.649.898 1.435.383 2.334 1.165 1.995 1.737-.662 1.117-11.276 1.654-12.346.624zM29.349 171.36c-21.505-1.614-22.292-1.772-24.01-4.845-.951-1.701-1.747-15.161-2.521-42.618-.625-22.072-1.642-52.276-2.267-67.12C-.677 27.503-.174 23.92 5.415 22.086c1.435-.471 12.454-5.478 24.484-11.127C41.932 5.31 53.863.43 56.409.112c7.258-.903 48.314 3.909 49.568 5.81.576.877 1.162 7.08 1.297 13.784.4 19.926-.376 105.935-.994 110.261-.455 3.166-3.69 7.298-15.578 19.892-21.156 22.413-21.591 22.705-33.923 22.763-5.493.026-17.836-.542-27.43-1.262zm36.497-4.522c0-1.33-4.443-1.989-16.884-2.515-5.115-.216-16.012-.869-24.224-1.45-8.208-.58-15.2-.77-15.538-.421-.336.35-.296 1.436.1 2.414.572 1.413 2.939 1.765 11.496 1.712 5.928-.036 15.749.221 21.82.574 16.942.984 23.244.899 23.22-.314zm34.47-33.989c4.02-3.149 3.111-2.167 3.086-7.28l-.272-55.118c-.165-32.975-.586-59.949-.948-59.942-1.145.02-28.953 16.819-30.523 18.437-1.165 1.204-1.45 11.08-1.274 44.393.132 23.564-.1 52.217-.497 63.674-.402 11.457-.704 22.149-.675 23.76.03 2.53 1.949 1 14.02-11.276 5.872-5.316 10.844-11.761 17.083-16.648zm-34.608 26.39c0-1.325-1.488-1.717-6.125-1.643-3.354.052-16.012-.744-28.131-1.775-12.121-1.03-22.255-1.645-22.525-1.366-.263.278-.165 1.306.23 2.285.553 1.367 2.676 1.76 9.173 1.7 4.65-.044 14.475.494 21.834 1.193 19.376 1.842 25.58 1.746 25.54-.393zm.263-6.935c.343-.944.264-1.928-.197-2.187-.454-.258-11.81-.869-25.231-1.356-13.422-.487-26.107-1.122-28.187-1.411-3.232-.449-3.778-.178-3.742 1.849.03 2.148.79 2.369 7.883 2.317 4.31-.03 14.639.491 22.956 1.16 21.565 1.736 25.784 1.676 26.528-.372zm-.553-7.997c0-1.723-6.743-2.245-39.367-3.065-16.311-.41-17.796-.283-17.391 1.489.389 1.707 3.055 1.951 22.388 2.055 12.069.065 22.219.386 22.56.713.34.328 3.14.55 6.228.493 3.963-.072 5.602-.567 5.582-1.685zm-.33-17.945-10.17-.533c-5.594-.294-15.952-.935-23.021-1.426-7.07-.49-15.305-.846-18.306-.791l-5.451.1.132 7.546.132 7.545 14.224-.112c11.977-.095 36.145.622 41.25 1.223 1.949.16 1.284-9.711 1.21-13.552zm.033-17.908c.579-18.076-.925-39.187-2.788-39.153-.747.013-9.962-1.076-20.481-2.421-10.516-1.346-22.654-2.753-26.972-3.126l-7.85-.68.52 28.457.52 28.456 17.138.525c14.169.433 32.429 1.403 38.182 2.027.833.09 1.435-4.81 1.73-14.085zM29.974 89.711c-4.437-2.596-5.918-6.236-4.036-9.914 2.35-4.59 8.772-5.452 13.988-1.878 6.323 4.328 3.677 13.799-3.887 13.923-1.296.023-4.025-.938-6.065-2.131zm9.38-5.445c-.07-3.084-5.605-5.002-8.143-2.816-1.65 1.42-1.626 1.757.23 3.734 2.703 2.878 7.969 2.266 7.913-.918zm24.322-35.162-.33-17.844-7.85-.589c-4.317-.324-14.875-.977-23.47-1.451-8.59-.475-18.22-1.16-21.4-1.522l-5.778-.66.954 16.502c.527 9.076 1.248 16.78 1.6 17.121.352.341 6.813.943 14.357 1.337 13.323.697 38.82 3.595 39.814 4.525 1.955 1.83 2.386-1.755 2.1-17.419zm-36.414 9.048c-15.44-1.07-16.649-1.72-16.977-7.616-.338-6.057 5.032-5.343 13.747-4.921 15.7.76 31.606 1.291 32.939 3.273 1.28 1.902.296 7.906-1.491 9.084-1.82 1.201-12.51 1.27-28.233.18zm26.037-4.943c0-1.429-.823-2.317-2.074-2.308-1.115.01-9.097-.62-17.733-1.395C12.8 47.65 13.478 47.607 13.98 50.734c.405 2.519.974 2.623 17.168 3.137 9.212.293 17.322.756 18.019 1.03 2.778 1.091 4.174.52 4.13-1.692zm-13.563-11.41c-3.838-.405-11.421-.72-16.852-.7-5.427.02-10.571-.391-11.43-.914-.89-.54-1.422-2.404-1.241-4.314-.083-5.047 4.845-3.668 16.005-3.4 19.916.48 29.493 1.64 30.079 5.293.296 1.924-.372 2.922-2.616 3.822-3.272 1.314-3.476 1.317-13.94.213zm12.13-3.518c0-.98-12.15-2.508-30.124-3.796-7.053-.505-8.482-.328-8.021.992.408 1.17 4.65 1.88 15.588 2.613 20.244 1.356 22.578 1.376 22.558.191zM96.61 8.493c1.175-.728-.86-1.27-6.418-1.712-4.476-.355-23.17-2.566-30.605-3.345-4.776-.78-4.609-.44-8.818 1.562-8.988 4.274-31.435 15.32-35.431 16.943l-5.069 2.057c-3.504 1.268-1.994.893.66.911l5.275.037c4.473.03 13.882.317 20.916.638 7.03.32 22.563.58 27.51.621 3.086.285 3.433-.082 5.942-1.631 8.679-5.36 17.36-10.717 26.038-16.081zm176.469 155.994c-4.371-.973-7.64-4.97-7.722-9.435-.1-5.638 4.025-13.744 9.157-17.98 3.36-2.773 5.693-3.612 11.713-4.206 10.572-1.043 14.929-.01 21.736 5.175 4.713 3.588 5.95 5.222 6 7.922.164 7.988-3.354 11.448-16.302 16.117-7.738 2.792-18.24 3.82-24.582 2.407zm23.815-9.41c7.494-3.193 12.435-7.093 10.884-8.587-.424-.41-1.675.078-2.777 1.087-1.103 1.008-4.852 3.378-8.331 5.266-5.55 3.013-7.573 3.457-16.51 3.624-8.767.16-9.892.401-8.095 1.709 3.196 2.328 15.78.757 24.829-3.099zm-5.674-3.271 3.518-1.511-3.452-2.284c-3.486-2.302-11.474-4.88-14.933-4.817-2.05.037-4.93 4.027-5.466 7.571-.231 1.565.549 2.506 2.577 3.086 3.646 1.043 13.102-.046 17.756-2.045zm10.09-5.254c4.089-2.516 4.188-4.183.373-6.136-2.337-1.196-3.831-1.2-7.524-.02-5.37 1.422-4.665 1.423-.796 4.814 2.096 1.838 3.992 3.353 4.213 3.368.23.013 1.902-.897 3.735-2.027zm-14.838-6.57c3.08-1.249 1.988-2.442-1.682-1.835-1.91.316-3.466 1.038-3.456 1.604 0 1.189 2.495 1.3 5.138.23zm-97.932-4.393c-15.552-.414-29.283-1.268-30.514-1.9-3.308-1.692-2.788-4.265 1.425-7.028 3.206-2.103 4.91-2.37 12.158-1.899l8.429.548-.07-3.531c-.07-3.429-.23-3.53-5.582-3.5-18.102.102-45.383-1.223-47.5-2.307-1.935-.99-2.655-2.748-3.284-7.975-1.017-8.494-.377-86.589.292-89.321.42-1.72 1.716-2.987 3.983-3.493 4.612-1.028 87.83-2.293 112.246-1.26 11.507.486 21.867 1.368 23.029 1.96 3.473 1.772 4.41 6.106 4.67 21.575.264 16.195-.776 56.446-1.787 68.466-1.06 12.62 0 12.229-33.166 12.037l-28.124-.164.07 3.936c.07 3.776.296 3.96 5.24 4.547 2.84.337 6.66.585 8.488.552 4.094-.075 8.03 3.52 8.103 7.4.03 2.59-.424 2.91-4.397 2.983-12.026-.955-24.026-1.363-33.71-1.626zm12.375-11.824c.016-5.225-1.174-5.953-9.403-5.73-5.668.155-7.723-1.705-7.692 4.206.024 4.54 3.761 3.996 8.676 3.906 2.78-.381 8.406 1.65 8.419-2.382zm58.962-15.578c.667-12.335 2.64-86.307 1.746-87.168-.432-.415-41.866-1.12-106.28-1.808-21.366-.229-25.83 0-26.652 1.375-.974 1.63-1.261 90.532-.296 91.636.513.587 109.553.609 125.174.773 5.335.057 6.07-.396 6.308-4.808zm-37.81-2.476c-10.225-.343-33.89-.784-52.59-.98-21.878-.228-34.463-.8-35.3-1.606-1.411-1.361-.924-75.277.507-76.764.998-1.034 24.149-1.274 76.812-1.08l41.35.154c2.305.009 4.008 1.135 4.155 2.783.374 4.209.935 21.274-.618 49.798-1.037 19.006-1.722 24.66-3.183 26.338-2.07 2.371-1.57 2.35-31.132 1.357zm29.584-5.983c.372-5.59 1.253-22.56 1.72-29.275 1.715-24.514 1.916-39.466.55-41.05-1.047-1.216-6.158-1.327-25.106-.543-13.086.542-38.755.62-57.044.173-18.29-.446-33.644-.367-34.124.177-.478.544-.932 16.928-1.008 36.41l-.131 35.422 33.446-.384c18.395-.211 42.076.2 52.627.915 10.552.714 21.362 1.281 24.02 1.365 4.163.133 4.78.85 5.05-3.21z"/></svg>