<svg height="48" width="48" xmlns="http://www.w3.org/2000/svg" xmlns:xlink="http://www.w3.org/1999/xlink"><radialGradient id="a" cx="605.71429" cy="486.64789" gradientTransform="matrix(-2.774389 0 0 1.969706 112.7623 -872.8854)" gradientUnits="userSpaceOnUse" r="117.14286" xlink:href="#b"/><linearGradient id="b"><stop offset="0"/><stop offset="1" stop-opacity="0"/></linearGradient><radialGradient id="c" cx="605.71429" cy="486.64789" gradientTransform="matrix(2.774389 0 0 1.969706 -1891.633 -872.8854)" gradientUnits="userSpaceOnUse" r="117.14286" xlink:href="#b"/><linearGradient id="d" gradientTransform="matrix(2.774389 0 0 1.969706 -1892.179 -872.8854)" gradientUnits="userSpaceOnUse" x1="302.85715" x2="302.85715" y1="366.64789" y2="609.50507"><stop offset="0" stop-opacity="0"/><stop offset=".5"/><stop offset="1" stop-opacity="0"/></linearGradient><linearGradient id="e" gradientUnits="userSpaceOnUse" x1="34.300991" x2="35.520542" y1="3.938409" y2="3.84511"><stop offset="0" stop-color="#909090"/><stop offset="1" stop-color="#bebebe" stop-opacity="0"/></linearGradient><linearGradient id="f" gradientTransform="matrix(1.187725 0 0 .845165 5.790998 2.901059)" gradientUnits="userSpaceOnUse" x1="11.492236" x2="17.199417" y1="1.653758" y2="26.729263"><stop offset="0" stop-color="#fff"/><stop offset="1" stop-color="#fcfcff" stop-opacity="0"/></linearGradient><linearGradient id="g"><stop offset="0" stop-color="#fff"/><stop offset="1" stop-color="#fff" stop-opacity="0"/></linearGradient><linearGradient id="h" gradientTransform="matrix(1.111794 0 0 .88712 5.762539 4.104218)" gradientUnits="userSpaceOnUse" x1="17.698339" x2="34.974548" xlink:href="#g" y1="13.004725" y2="55.200756"/><linearGradient id="i" gradientTransform="matrix(5.705159 0 0 .330801 5.5 -24.10971)" gradientUnits="userSpaceOnUse" x1="3.706998" x2="3.706997" xlink:href="#b" y1="171.29134" y2="162.45061"/><linearGradient id="j" gradientTransform="matrix(1.112679 0 0 .909474 4.563508 2.854651)" gradientUnits="userSpaceOnUse" x1="10.390738" x2="32.536823" y1="5.381774" y2="31.246054"><stop offset="0" stop-color="#8f8f8f"/><stop offset="1" stop-color="#494949"/></linearGradient><linearGradient id="k" gradientTransform="matrix(1.138336 0 0 .888975 2.926322 1.544513)" gradientUnits="userSpaceOnUse" x1="8.611624" x2="34.784473" y1="7.229358" y2="33.339787"><stop offset="0" stop-color="#dde1d9"/><stop offset="1" stop-color="#cacdc6"/></linearGradient><radialGradient id="l" cx="18.247644" cy="15.716079" gradientTransform="matrix(1.008876 0 0 1.008898 -.218353 -.208728)" gradientUnits="userSpaceOnUse" r="29.993349"><stop offset="0" stop-color="#d3e9ff"/><stop offset=".15517241" stop-color="#d3e9ff"/><stop offset=".75" stop-color="#4074ae"/><stop offset="1" stop-color="#36486c"/></radialGradient><radialGradient id="m" cx="15.115514" cy="63.965388" gradientTransform="scale(1.64399 .608276)" gradientUnits="userSpaceOnUse" r="12.289036" xlink:href="#b"/><radialGradient id="n" cx="15.601279" cy="12.142302" gradientTransform="scale(.999989 1.000011)" gradientUnits="userSpaceOnUse" r="43.526714"><stop offset="0" stop-color="#fff"/><stop offset="1" stop-color="#fff" stop-opacity=".164948"/></radialGradient><radialGradient id="o" cx="11.826907" cy="10.476453" gradientTransform="scale(1.179536 .847791)" gradientUnits="userSpaceOnUse" r="32.664848" xlink:href="#g"/><radialGradient id="p" cx="18.63378" cy="17.486208" fx="18.934305" fy="17.810213" gradientTransform="scale(1.036822 .964486)" gradientUnits="userSpaceOnUse" r="40.692665"><stop offset="0" stop-color="#fff"/><stop offset=".37931034" stop-color="#fefefe"/><stop offset="1" stop-color="#1d1d1d"/></radialGradient><path d="m45.052803 38.908627a20.203051 7.4751287 0 1 1 -40.4061012 0 20.203051 7.4751287 0 1 1 40.4061012 0z" fill="url(#m)" opacity=".477778" transform="matrix(1 0 0 1.243244 0 -10.27241)"/><g transform="matrix(.02015 0 0 .02086758 36.74885 41.38063)"><path d="m-1559.2523-150.69685h1339.6335v478.35718h-1339.6335z" fill="url(#d)" opacity=".402062"/><path d="m-219.61876-150.68038v478.33079c142.874166.90045 345.40022-107.16966 345.40014-239.196175 0-132.026537-159.436816-239.134595-345.40014-239.134615z" fill="url(#c)" opacity=".402062"/><path d="m-1559.2523-150.68038v478.33079c-142.8742.90045-345.4002-107.16966-345.4002-239.196175 0-132.026537 159.4368-239.134595 345.4002-239.134615z" fill="url(#a)" opacity=".402062"/></g><path d="m44.132171 23.485487c0 10.804895-8.759261 19.564057-19.56267 19.564057-10.804399 0-19.5631649-8.759261-19.5631649-19.564057 0-10.8044 8.7587659-19.5626697 19.5631649-19.5626697 10.803409 0 19.56267 8.7582697 19.56267 19.5626697z" fill="url(#l)" stroke="#39396c"/><path d="m30.708637 15.271057a12.929953 9.2934036 0 1 1 -25.859905 0 12.929953 9.2934036 0 1 1 25.859905 0z" fill="url(#o)" opacity=".421594" transform="matrix(.835938 0 0 1 9.886868 0)"/><g fill-opacity=".71345" transform="matrix(.982371 0 0 .982371 .121079 .232914)"><path d="m44.0713 20.7144-.5449.6172c-.334-.3936-.709-.7246-1.0898-1.0703l-.8359.123-.7637-.8633v1.0684l.6543.4951.4355.4932.582-.6582c.1465.2744.291.5488.4365.8232v.8223l-.6553.7402-1.1992.8232-.9082.9063-.582-.6602.291-.7402-.5811-.6582-.9814-2.0977-.8359-.9453-.2188.2461.3281 1.1934.6172.6992c.3525 1.0176.7012 1.9902 1.1641 2.9629.7178 0 1.3945-.0762 2.1074-.166v.5762l-.8721 2.1392-.7998.9043-.6543 1.4004v2.3027l.2188.9063-.3633.4102-.8008.4941-.8359.6992.6914.7813-.9453.8242.1816.5332-1.418 1.6055h-.9443l-.7998.4941h-.5098v-.6582l-.2168-1.3184c-.2813-.8262-.5742-1.6465-.8721-2.4668 0-.6055.0361-1.2051.0723-1.8105l.3643-.8223-.5098-.9883.0371-1.3574-.6914-.7813.3457-1.1309-.5625-.6382h-.9824l-.3271-.3701-.9814.6177-.3994-.4536-.9092.7817c-.6172-.6997-1.2354-1.3989-1.8535-2.0981l-.7266-1.7285.6543-.9863-.3633-.4111.7988-1.8936c.6563-.8164 1.3418-1.5996 2.0352-2.3857l1.2363-.3291 1.3809-.1641.9453.2471 1.3447 1.3564.4727-.5342.6533-.082 1.2363.4111h.9453l.6543-.5762.291-.4111-.6553-.4111-1.0908-.082c-.3027-.4199-.584-.8613-.9434-1.2344l-.3643.1641-.1455 1.0703-.6543-.7402-.1445-.8242-.7266-.5742h-.292l.7275.8223-.291.7402-.5811.1641.3633-.7402-.6553-.3281-.5801-.6582-1.0918.2461-.1445.3281-.6543.4121-.3633.9053-.9082.4521-.4004-.4521h-.4355v-1.4814l.9453-.4941h.7266l-.1465-.5752-.5801-.5762.9805-.2061.5449-.6162.4355-.7412h.8008l-.2188-.5752.5098-.3291v.6582l1.0898.2461 1.0898-.9043.0732-.4121.9443-.6577c-.3418.0425-.6836.0737-1.0176.1646v-.7411l.3633-.8228h-.3633l-.7984.7402-.2188.4116.2188.5767-.3643.9863-.5811-.3291-.5078-.5752-.8008.5752-.291-1.3159 1.3809-.9048v-.4941l.873-.5757 1.3809-.3296.9453.3296 1.7441.3291-.4355.4932h-.9453l.9453.9873.7266-.8223.2207-.3618s2.7871 2.498 4.3799 5.2305c1.5928 2.7334 2.3408 5.9551 2.3408 6.6094z"/><path d="m26.0703 9.2363-.0732.4932.5098.3291.8711-.5757-.4355-.4937-.582.3296-.29-.0825"/><path d="m26.8701 5.8633-1.8906-.7407-2.1797.2466-2.6904.7402-.5088.4941 1.6719 1.1514v.6582l-.6543.6582.873 1.729.5801-.3301.7285-1.1514c1.123-.3472 2.1299-.7407 3.1973-1.2344l.873-2.2212"/><path d="m28.833 12.7749-.291-.7412-.5098.165.1465.9043z"/><path d="m29.123 12.6089-.1455.9883.7998-.165.5811-.5752-.5088-.4941c-.1709-.4551-.3672-.8799-.5811-1.3164h-.4355v.4932l.29.3291v.7402"/><path d="m18.3652 28.2422-.582-1.1523-1.0903-.2466-.5815-1.5625-1.4536.1641-1.2354-.9043-1.3091 1.1514v.1816c-.396-.1143-.8828-.1299-1.2354-.3467l-.291-.8223v-.9053l-.8721.082c.0728-.5762.145-1.1514.2183-1.7275h-.5093l-.5083.6582-.5093.2461-.7271-.4102-.0728-.9053.1455-.9873 1.0908-.8223h.8721l.145-.4941 1.0903.2461.7998.9883.1455-1.6465 1.3813-1.1514.5088-1.2344 1.0176-.4111.5815-.8223 1.3081-.248.6548-.9863c-.6543 0-1.3086 0-1.9629 0l1.2358-.5762h.8716l1.2363-.4121.1455-.4922-.4365-.4121-.5088-.165.1455-.4932-.3633-.7402-.8726.3281.1455-.6577-1.0176-.5762-.7993 1.3979.0723.4941-.7993.3301-.5093 1.0693-.2178-.9873-1.3813-.5762-.2183-.7402 1.8174-1.0703.7998-.7402.0728-.9048-.436-.2471-.5815-.0825-.3633.9053s-.6079.1191-.7642.1577c-1.9961 1.8394-6.0293 5.8101-6.9663 13.3062.0371.1738.6792 1.1816.6792 1.1816l1.5264.9043 1.5264.4121.6548.8232 1.0171.7402.5815-.082.436.1963v.1328l-.5811 1.563-.4365.6582.1455.3301-.3633 1.2324 1.3086 2.3867 1.3081 1.1523.582.8223-.0732 1.7285.4365.9863-.4365 1.8926s-.0342-.0117.0215.1777c.0562.1895 2.3291 1.4512 2.4736 1.3438.144-.1094.2671-.2051.2671-.2051l-.145-.4102.5811-.5762.2183-.5762.9453-.3301.7266-1.8105-.2178-.4922.5078-.7402 1.0908-.248.582-1.3164-.1455-1.6445.8721-1.2344.1455-1.2344c-1.1934-.5918-2.377-1.2012-3.5615-1.8105"/><path d="m16.7656 9.5649.7266.4937h.582v-.5757l-.7266-.3291z"/><path d="m14.876 8.9072-.3638.9048h.7271l.3638-.8228c.3135-.2217.6255-.4448.9448-.6582l.7271.2471c.4844.3291.9688.6582 1.4536.9868l.7275-.6577-.8003-.3291-.3638-.7407-1.3809-.1646-.0728-.4116-.6543.165-.2904.5758-.3638-.7407-.145.3291.0728.8228z"/><path d="m17.4922 6.8496.3638-.3286.7271-.1646c.498-.2422.998-.4053 1.5264-.5762l-.29-.4937-.9385.1348-.4434.4419-.731.106-.6499.3052-.3159.1528-.1929.2583z"/><path d="m18.7285 14.6665.4365-.6582-.6548-.4932z"/></g><g fill="url(#p)" stroke-width="1.017945" transform="matrix(.982371 0 0 .982371 -.080952 .030883)"><path d="m44.0713 20.7144 0 0-.5449.6172c-.334-.3936-.709-.7246-1.0898-1.0703l-.8359.123-.7637-.8633v1.0684l.6543.4951.4355.4932.582-.6582c.1465.2744.291.5488.4365.8232v.8223l-.6553.7402-1.1992.8232-.9082.9063-.582-.6602.291-.7402-.5811-.6582-.9814-2.0977-.8359-.9453-.2188.2461.3281 1.1934.6172.6992c.3525 1.0176.7012 1.9902 1.1641 2.9629.7178 0 1.3945-.0762 2.1074-.166v.5762l-.8721 2.1392-.7998.9043-.6543 1.4004v2.3027l.2188.9063-.3633.4102-.8008.4941-.8359.6992.6914.7813-.9453.8242.1816.5332-1.418 1.6055h-.9443l-.7998.4941h-.5098v-.6582l-.2168-1.3184c-.2813-.8262-.5742-1.6465-.8721-2.4668 0-.6055.0361-1.2051.0723-1.8105l.3643-.8223-.5098-.9883.0371-1.3574-.6914-.7813.3457-1.1309-.5625-.6382h-.9824l-.3271-.3701-.9814.6177-.3994-.4536-.9092.7817c-.6172-.6997-1.2354-1.3989-1.8535-2.0981l-.7266-1.7285.6543-.9863-.3633-.4111.7988-1.8936c.6563-.8164 1.3418-1.5996 2.0352-2.3857l1.2363-.3291 1.3809-.1641.9453.2471 1.3447 1.3564.4727-.5342.6533-.082 1.2363.4111h.9453l.6543-.5762.291-.4111-.6553-.4111-1.0908-.082c-.3027-.4199-.584-.8613-.9434-1.2344l-.3643.1641-.1455 1.0703-.6543-.7402-.1445-.8242-.7266-.5742h-.292l.7275.8223-.291.7402-.5811.1641.3633-.7402-.6553-.3281-.5801-.6582-1.0918.2461-.1445.3281-.6543.4121-.3633.9053-.9082.4521-.4004-.4521h-.4355v-1.4814l.9453-.4941h.7266l-.1465-.5752-.5801-.5762.9805-.2061.5449-.6162.4355-.7412h.8008l-.2188-.5752.5098-.3291v.6582l1.0898.2461 1.0898-.9043.0732-.4121.9443-.6577c-.3418.0425-.6836.0737-1.0176.1646v-.7411l.3633-.8228h-.3633l-.7984.7402-.2188.4116.2188.5767-.3643.9863-.5811-.3291-.5078-.5752-.8008.5752-.291-1.3159 1.3809-.9048v-.4941l.873-.5757 1.3809-.3296.9453.3296 1.7441.3291-.4355.4932h-.9453l.9453.9873.7266-.8223.2207-.3618s2.7871 2.498 4.3799 5.2305c1.5928 2.7334 2.3408 5.9551 2.3408 6.6094z"/><path d="m26.0703 9.2363-.0732.4932.5098.3291.8711-.5757-.4355-.4937-.582.3296-.29-.0825"/><path d="m26.8701 5.8633-1.8906-.7407-2.1797.2466-2.6904.7402-.5088.4941 1.6719 1.1514v.6582l-.6543.6582.873 1.729.5801-.3301.7285-1.1514c1.123-.3472 2.1299-.7407 3.1973-1.2344l.873-2.2212"/><path d="m28.833 12.7749-.291-.7412-.5098.165.1465.9043.6543-.3281"/><path d="m29.123 12.6089-.1455.9883.7998-.165.5811-.5752-.5088-.4941c-.1709-.4551-.3672-.8799-.5811-1.3164h-.4355v.4932l.29.3291v.7402"/><path d="m18.3652 28.2422-.582-1.1523-1.0903-.2466-.5815-1.5625-1.4536.1641-1.2354-.9043-1.3091 1.1514v.1816c-.396-.1143-.8828-.1299-1.2354-.3467l-.291-.8223v-.9053l-.8721.082c.0728-.5762.145-1.1514.2183-1.7275h-.5093l-.5083.6582-.5093.2461-.7271-.4102-.0728-.9053.1455-.9873 1.0908-.8223h.8721l.145-.4941 1.0903.2461.7998.9883.1455-1.6465 1.3813-1.1514.5088-1.2344 1.0176-.4111.5815-.8223 1.3081-.248.6548-.9863c-.6543 0-1.3086 0-1.9629 0l1.2358-.5762h.8716l1.2363-.4121.1455-.4922-.4365-.4121-.5088-.165.1455-.4932-.3633-.7402-.8726.3281.1455-.6577-1.0176-.5762-.7993 1.3979.0723.4941-.7993.3301-.5093 1.0693-.2178-.9873-1.3813-.5762-.2183-.7402 1.8174-1.0703.7998-.7402.0728-.9048-.436-.2471-.5815-.0825-.3633.9053s-.6079.1191-.7642.1577c-1.9961 1.8394-6.0293 5.8101-6.9663 13.3062.0371.1738.6792 1.1816.6792 1.1816l1.5264.9043 1.5264.4121.6548.8232 1.0171.7402.5815-.082.436.1963v.1328l-.5811 1.563-.4365.6582.1455.3301-.3633 1.2324 1.3086 2.3867 1.3081 1.1523.582.8223-.0732 1.7285.4365.9863-.4365 1.8926s-.0342-.0117.0215.1777c.0562.1895 2.3291 1.4512 2.4736 1.3438.144-.1094.2671-.2051.2671-.2051l-.145-.4102.5811-.5762.2183-.5762.9453-.3301.7266-1.8105-.2178-.4922.5078-.7402 1.0908-.248.582-1.3164-.1455-1.6445.8721-1.2344.1455-1.2344c-1.1934-.5918-2.377-1.2012-3.5615-1.8105"/><path d="m16.7656 9.5649.7266.4937h.582v-.5757l-.7266-.3291-.582.4111"/><path d="m14.876 8.9072-.3638.9048h.7271l.3638-.8228c.3135-.2217.6255-.4448.9448-.6582l.7271.2471c.4844.3291.9688.6582 1.4536.9868l.7275-.6577-.8003-.3291-.3638-.7407-1.3809-.1646-.0728-.4116-.6543.165-.2904.5758-.3638-.7407-.145.3291.0728.8228-.5816.494"/><path d="m17.4922 6.8496.3638-.3286.7271-.1646c.498-.2422.998-.4053 1.5264-.5762l-.29-.4937-.9385.1348-.4434.4419-.731.106-.6499.3052-.3159.1528-.1929.2583.9443.1641"/><path d="m18.7285 14.6665.4365-.6582-.6548-.4932.2183 1.1514"/></g><path d="m42.975093 23.485534c0 10.16582-8.241178 18.406906-18.4056 18.406906-10.165354 0-18.4060669-8.241179-18.4060669-18.406906 0-10.165354 8.2407129-18.4056 18.4060669-18.4056 10.164422 0 18.4056 8.240246 18.4056 18.4056z" fill="none" stroke="url(#n)"/><path d="m38.06066 5.8716896c5.063526-5.9572289 9.132904-.7863453 5.17165 6.5996904-3.941683 7.34954 3.292466 11.243086 1.414214 17.617008-1.940807 6.5862-4.507807 5.290292-7.513011 7.790292-3.005203 2.5-15.733125 2.12132-15.733125 2.12132l-.400388-2" fill="none" stroke="#888a85" stroke-width="3"/><path d="m38.06066 5.8716896c5.063526-5.9572289 9.132904-.7863453 5.17165 6.5996904-3.941683 7.34954 3.292466 11.243086 1.414214 17.617008-1.940807 6.5862-4.507807 5.290292-7.513011 7.790292-3.005203 2.5-15.733125 2.12132-15.733125 2.12132l-.400388-2" fill="none" stroke="#babdb6"/><g transform="matrix(.857741 0 0 .857741 -3.490242 15.59392)"><path d="m6.6600157 4.5577672h35.9810113c.918177 0 1.672571.5849741 1.679252 1.407782l.208596 25.6911708c.009128 1.124161-.907813 2.029236-2.035456 2.029236h-35.8117324c-1.1276425 0-2.050093-.905133-2.0354556-2.029236l.3345338-25.6911708c.0101297-.7779409.5516084-1.407782 1.6792509-1.407782z" fill="url(#k)" fill-rule="evenodd" stroke="url(#j)" stroke-width="1.165853"/><path d="m8.3577101 7.9937458-.2322589 19.9130832h30.3519108l-.321273-19.8286907z" fill="#729fcf" fill-rule="evenodd" stroke="#3465a4" stroke-linejoin="round" stroke-width="1.165853"/><path d="m6.6774331 31.404697h35.4284769" fill="none" stroke="url(#i)" stroke-linecap="round" stroke-opacity=".248408" stroke-width="1.161401"/><path d="m6.6802114 5.7815313 35.9660106-.0371582c.284651-.0002941.577973.2326426.584061.6414436l.363109 24.3813283c.015496 1.040505-.541563 1.755492-1.603745 1.755492h-34.6400329c-1.0621818 0-1.5550877-.714968-1.5410349-1.755492l.32518-24.077505c.0095162-.7046193.1669447-.9077164.5464522-.9081087z" fill="none" stroke="url(#h)" stroke-opacity=".700637" stroke-width="1.165853"/><g fill-rule="evenodd"><path d="m8.7828779 8.6344013-.0503561 16.8572917c10.5877622-2.264542 15.9818252-9.897414 29.1463272-12.401483l-.034963-4.3934898z" fill="url(#f)" opacity=".531429"/><path d="m35.620504 3.9384086a.83968931.83968931 0 1 1 -1.679378 0 .83968931.83968931 0 1 1 1.679378 0z" fill="url(#e)" transform="matrix(1.331237 0 0 .658449 -5.212226 6.082418)"/><path d="m35.620504 3.9384086a.83968931.83968931 0 1 1 -1.679378 0 .83968931.83968931 0 1 1 1.679378 0z" fill="url(#e)" transform="matrix(1.331237 0 0 .658449 -5.098626 8.188202)"/><path d="m35.620504 3.9384086a.83968931.83968931 0 1 1 -1.679378 0 .83968931.83968931 0 1 1 1.679378 0z" fill="url(#e)" transform="matrix(1.331237 0 0 .658449 -4.985026 10.18821)"/><path d="m35.620504 3.9384086a.83968931.83968931 0 1 1 -1.679378 0 .83968931.83968931 0 1 1 1.679378 0z" fill="url(#e)" transform="matrix(1.331237 0 0 .658449 -4.871426 12.18821)"/><path d="m35.620504 3.9384086a.83968931.83968931 0 1 1 -1.679378 0 .83968931.83968931 0 1 1 1.679378 0z" fill="url(#e)" transform="matrix(1.331237 0 0 .658449 -4.757826 14.18821)"/></g></g><path d="m45.052803 38.908627a20.203051 7.4751287 0 1 1 -40.4061012 0 20.203051 7.4751287 0 1 1 40.4061012 0z" fill="url(#m)" opacity=".477778" transform="matrix(.287993 .273427 -.350839 .346922 40.62266 -11.07903)"/><g fill-rule="evenodd"><g transform="matrix(.750525 -.660841 .660841 .750525 -7.964352 18.96992)"><path d="m37.558058 15.646447v9.93934l2.701903.06066c2.118056 0 4.298097-1.981449 4.298097-3.325825v-3.171573c0-1.233799-1.719214-3.502602-4.209709-3.502602h-2.790291z" fill="#ef2929" stroke="#c00"/><path d="m38 25v-9c2.915148-.248481 4.730387.602947 6 2-1.503409-.741477-3.033984-1.41504-5-1l-1 8z" fill="#fff" opacity=".466667"/></g><path d="m4 23h25v2h-25z" fill="#eeeeec"/><path d="m15 28h9v9h-9z" fill="#eeeeec"/><path d="m15 26h9v2h-9z" fill="#204a87"/><path d="m7 29h4v2h-4z" fill="#204a87"/><path d="m7 31h4v3h-4z" fill="#eeeeec"/><path d="m43.045125 3.0103309a.61871845.61871845 0 1 1 -1.237437 0 .61871845.61871845 0 1 1 1.237437 0z" fill="#eeeeec"/><path d="m43.045125 3.0103309a.61871845.61871845 0 1 1 -1.237437 0 .61871845.61871845 0 1 1 1.237437 0z" fill="#eeeeec" opacity=".522222" transform="matrix(1.857143 0 0 1.857143 -42.90623 -.547352)"/></g></svg>