<svg enable-background="new 0 0 500 500" viewBox="0 0 500 500" xmlns="http://www.w3.org/2000/svg"><path d="m250 323.843c5.039 0 9.93.636 14.598 1.829v-57.368h-29.195v57.368c4.667-1.192 9.558-1.829 14.597-1.829z" fill="#ecf4f7"/><path d="m79.833 105.18c-9.994 0-18.095 8.101-18.095 18.095v12.361h36.19v-12.361c0-9.993-8.102-18.095-18.095-18.095z" fill="#aab1ba"/><path d="m420.168 105.18c-9.994 0-18.095 8.101-18.095 18.095v12.361h36.19v-12.361c0-9.993-8.102-18.095-18.095-18.095z" fill="#aab1ba"/><path d="m61.737 135.636h36.19v55.538h-36.19z" fill="#ecf4f7"/><path d="m402.072 135.636h36.19v55.538h-36.19z" fill="#ecf4f7"/><path d="m465.062 191.175h-144.013l-10.816-24.598c-6.286-14.293-20.425-23.52-36.038-23.52h-48.389c-15.614 0-29.752 9.227-36.038 23.52l-10.818 24.598h-143.568c-7.336 0-13.63 5.739-13.764 13.074-.137 7.473 5.88 13.575 13.322 13.575h25.234v19.827c0 16.93 13.724 30.654 30.654 30.654h8.765v214.004c0 7.009 5.682 12.691 12.691 12.691 7.009 0 12.691-5.682 12.691-12.691v-112.837c0-38.292 15.489-74.692 42.508-101.167h165.038c27.019 26.475 42.508 62.875 42.508 101.167v112.837c0 7.009 5.682 12.691 12.691 12.691s12.691-5.682 12.691-12.691v-214.004h8.765c16.93 0 30.654-13.724 30.654-30.654v-19.827h24.792c7.337 0 13.63-5.74 13.764-13.075.134-7.474-5.883-13.574-13.324-13.574z" fill="#aab1ba"/><path d="m322.236 329.987h-46.076c-7.88-3.925-16.759-6.144-26.16-6.144s-18.28 2.219-26.16 6.144h-46.076c-4.78 0-8.654 3.875-8.654 8.654v87.946c0 4.78 3.875 8.654 8.654 8.654h46.076c7.88 3.925 16.759 6.144 26.16 6.144s18.28-2.219 26.16-6.144h46.076c4.78 0 8.654-3.874 8.654-8.654v-87.946c0-4.779-3.874-8.654-8.654-8.654z" fill="#aab1ba"/><path d="m250 420.639c-21.001 0-38.025-17.024-38.025-38.025 0-21.001 17.024-38.025 38.025-38.025 21.001 0 38.025 17.024 38.025 38.025 0 21.001-17.024 38.025-38.025 38.025z" fill="#83e1e5"/><path d="m233.465 16.535c0-2.761 2.239-5 5-5h6.535v-6.535c0-2.761 2.239-5 5-5s5 2.239 5 5v6.535h6.535c2.761 0 5 2.239 5 5s-2.239 5-5 5h-6.535v6.534c0 2.761-2.239 5-5 5s-5-2.239-5-5v-6.534h-6.535c-2.761 0-5-2.239-5-5zm5 57.819h6.535v6.535c0 2.761 2.239 5 5 5s5-2.239 5-5v-6.535h6.535c2.761 0 5-2.239 5-5s-2.239-5-5-5h-6.535v-6.535c0-2.761-2.239-5-5-5s-5 2.239-5 5v6.535h-6.535c-2.761 0-5 2.239-5 5s2.239 5 5 5zm54.56 308.26c0 23.724-19.301 43.025-43.025 43.025s-43.025-19.301-43.025-43.025 19.301-43.025 43.025-43.025 43.025 19.301 43.025 43.025zm-10 0c0-18.21-14.815-33.025-33.025-33.025s-33.025 14.815-33.025 33.025 14.815 33.025 33.025 33.025 33.025-14.815 33.025-33.025zm-86.55 47.627h-18.71c-2.015 0-3.654-1.639-3.654-3.654v-87.945c0-2.015 1.639-3.654 3.654-3.654h18.711c2.761 0 5-2.239 5-5s-2.239-5-5-5h-18.711c-7.529 0-13.654 6.125-13.654 13.654v87.945c0 7.529 6.125 13.654 13.654 13.654h18.71c2.761 0 5-2.239 5-5s-2.239-5-5-5zm125.761-105.254h-18.711c-2.761 0-5 2.239-5 5s2.239 5 5 5h18.711c2.015 0 3.654 1.639 3.654 3.654v87.945c0 2.015-1.639 3.654-3.654 3.654h-18.71c-2.761 0-5 2.239-5 5s2.239 5 5 5h18.71c7.529 0 13.654-6.125 13.654-13.654v-87.945c0-7.528-6.125-13.654-13.654-13.654zm161.15-120.488c0 10.104-8.22 18.325-18.325 18.325h-20.234v14.828c0 19.66-15.994 35.654-35.653 35.654h-139.576v48.632c25.602 8.29 44.173 32.35 44.173 60.677 0 35.164-28.607 63.771-63.771 63.771s-63.771-28.607-63.771-63.771c0-28.327 18.571-52.388 44.173-60.677v-48.632h-139.576c-19.66 0-35.654-15.994-35.654-35.654v-14.828h-20.234c-10.104 0-18.325-8.22-18.325-18.325s8.22-18.325 18.325-18.325h21.799v-45.538h-35.123c-2.761 0-5-2.239-5-5s2.239-5 5-5h35.124v-7.361c0-12.735 10.36-23.095 23.095-23.095s23.095 10.36 23.095 23.095v7.361h35.124c2.761 0 5 2.239 5 5s-2.239 5-5 5h-35.124v45.538h294.145v-45.538h-35.124c-2.761 0-5-2.239-5-5s2.239-5 5-5h35.124v-7.361c0-12.735 10.36-23.095 23.095-23.095s23.095 10.36 23.095 23.095v7.361h35.124c2.761 0 5 2.239 5 5s-2.239 5-5 5h-35.124v45.538h21.799c10.104 0 18.324 8.221 18.324 18.325zm-76.314-73.863h26.19v-7.361c0-7.221-5.875-13.095-13.095-13.095s-13.095 5.875-13.095 13.095zm0 55.538h26.19v-45.538h-26.19zm-340.335-55.538h26.19v-7.361c0-7.221-5.875-13.095-13.095-13.095s-13.095 5.875-13.095 13.095zm0 55.538h26.19v-45.538h-26.19zm195.844 144.17c-.715-.171-1.432-.336-2.154-.478-.337-.067-.678-.122-1.017-.182-.733-.129-1.468-.247-2.206-.345-.282-.038-.565-.075-.849-.108-.883-.103-1.769-.187-2.657-.247-.146-.01-.29-.024-.436-.033-2.171-.129-4.35-.129-6.521 0-.146.009-.29.023-.436.033-.888.06-1.774.144-2.658.247-.284.034-.566.07-.848.108-.738.098-1.474.216-2.207.345-.339.06-.68.115-1.017.182-.722.141-1.439.306-2.154.478-23.598 5.681-41.19 26.953-41.19 52.27 0 29.649 24.122 53.771 53.771 53.771s53.771-24.122 53.771-53.771c-.002-25.316-17.594-46.589-41.192-52.27zm-2.983-57.039h-19.195v46.259c.925-.14 1.854-.253 2.785-.353.289-.031.58-.055.871-.082.707-.066 1.415-.12 2.124-.162.297-.018.592-.037.89-.05.975-.044 1.951-.074 2.928-.074s1.953.03 2.928.074c.298.014.594.032.89.05.709.042 1.417.096 2.124.162.29.027.582.051.871.082.931.099 1.86.213 2.785.353v-46.259zm213.788-68.806c0-4.59-3.734-8.325-8.325-8.325h-26.799-36.19-304.144-36.19-26.8c-4.59 0-8.325 3.734-8.325 8.325s3.734 8.325 8.325 8.325h25.234 93.819c2.761 0 5 2.239 5 5s-2.239 5-5 5h-88.819v14.828c0 14.146 11.508 25.654 25.654 25.654h144.576 29.195 144.577c14.145 0 25.653-11.508 25.653-25.654v-14.828h-88.744c-2.761 0-5-2.239-5-5s2.239-5 5-5h93.744.075 25.159c4.591 0 8.325-3.735 8.325-8.325zm-319.479 79.054c-2.253-1.596-5.374-1.062-6.97 1.192-17.64 24.92-26.964 54.218-26.964 84.727v112.837c0 4.241-3.45 7.691-7.691 7.691s-7.691-3.45-7.691-7.691v-194.675c0-2.761-2.239-5-5-5s-5 2.239-5 5v194.675c0 9.755 7.937 17.691 17.691 17.691s17.691-7.936 17.691-17.691v-112.837c0-28.428 8.688-55.728 25.126-78.949 1.596-2.254 1.062-5.374-1.192-6.97zm246.502-.919c-2.761 0-5 2.239-5 5v194.675c0 4.241-3.45 7.691-7.691 7.691s-7.691-3.45-7.691-7.691v-112.837c0-30.509-9.324-59.807-26.965-84.727-1.596-2.254-4.716-2.787-6.97-1.192-2.254 1.596-2.788 4.716-1.192 6.97 16.438 23.221 25.127 50.521 25.127 78.949v112.837c0 9.755 7.936 17.691 17.691 17.691s17.691-7.936 17.691-17.691v-194.675c0-2.761-2.239-5-5-5zm-219.494-69.81h-4.308c-2.761 0-5 2.239-5 5s2.239 5 5 5h4.308c2.761 0 5-2.239 5-5s-2.239-5-5-5zm142.552 0h-4.308c-2.761 0-5 2.239-5 5s2.239 5 5 5h4.308c2.761 0 5-2.239 5-5s-2.238-5-5-5zm-139.566-32.91c2.528 1.111 5.478-.036 6.59-2.563l3.853-8.761c5.485-12.473 17.835-20.533 31.461-20.533h48.389c13.626 0 25.976 8.06 31.462 20.533l3.854 8.761c.824 1.873 2.657 2.988 4.579 2.988.672 0 1.356-.137 2.011-.425 2.528-1.112 3.675-4.062 2.563-6.59l-3.854-8.761c-7.082-16.102-23.024-26.507-40.615-26.507h-48.389c-17.591 0-33.534 10.405-40.615 26.507l-3.853 8.761c-1.111 2.528.037 5.479 2.564 6.59z" fill="#1c1d21"/></svg>