<svg enable-background="new 0 0 511.999 511.999" viewBox="0 0 511.999 511.999" xmlns="http://www.w3.org/2000/svg"><path d="m474.453 55.626c0-9.18-7.511-16.69-16.69-16.69h-336.776c-9.18 0-16.69 7.511-16.69 16.69v27.817c0 9.18 7.511 16.689 16.69 16.689h336.776c9.18 0 16.69-7.51 16.69-16.689z" fill="#333e48"/><path d="m104.298 58.966h370.151v15.021h-370.151z" opacity=".1"/><path d="m503.897 96.239c0-12.239-10.015-22.254-22.254-22.254h-384.536c-12.239 0-22.254 10.015-22.254 22.254v289.882c0 12.24 10.015 22.254 22.254 22.254h384.537c12.239 0 22.254-10.014 22.254-22.254v-289.882z" fill="#7d868c"/><path d="m503.897 96.239c0-12.239-10.015-22.254-22.254-22.254h-186.444c-12.238 0-22.253 10.015-22.253 22.254v186.445c0 12.239 10.015 22.253 22.253 22.253h186.445c12.239 0 22.254-10.014 22.254-22.253v-186.445z" fill="#333e48"/><path d="m481.643 73.985h-186.444c-12.238 0-22.253 10.015-22.253 22.254v186.445c0 12.239 10.015 22.253 22.253 22.253h186.445c12.239 0 22.254-10.014 22.254-22.253v-186.445c-.001-12.239-10.016-22.254-22.255-22.254zm2.456 192.715c0 10.141-8.298 18.437-18.438 18.437h-154.478c-10.142 0-18.438-8.297-18.438-18.437v-154.477c0-10.141 8.297-18.438 18.438-18.438h154.476c10.141 0 18.438 8.298 18.438 18.438v154.477z" opacity=".2"/><circle cx="388.42" cy="189.462" opacity=".2" r="73.376"/><circle cx="388.42" cy="189.462" opacity=".2" r="42.393"/><circle cx="388.42" cy="189.462" opacity=".2" r="12.751"/><path d="m127.593 275.338c-12.239 0-22.254-10.014-22.254-22.253v-117.834c0-12.238 10.015-22.253 22.254-22.253h95.689c12.239 0 22.254 10.015 22.254 22.253v117.834c0 12.239-10.015 22.253-22.254 22.253z" fill="#333e48"/><path d="m129.816 137.475h91.236v113.383h-91.236z" fill="#61b4e4"/><path d="m454.055 365.336h-164.68c-4.476 0-8.103-3.627-8.103-8.103s3.627-8.103 8.103-8.103h164.681c4.476 0 8.103 3.627 8.103 8.103s-3.628 8.103-8.104 8.103z" fill="#333e48"/><path d="m36.255 408.374h351.656v43.538h-351.656z" fill="#333e48"/><path d="m245.532 408.374h27.41v43.538h-27.41z" fill="#7d868c"/><path d="m305.805 408.374h27.409v43.538h-27.409z" fill="#7d868c"/><path d="m36.255 408.38v43.541h38.597v-21.77h313.058v-21.771z" opacity=".2"/><path d="m8.103 463.405c0 6.119 4.957 10.416 11.013 9.548l27.896-3.998c6.058-.869 11.013-6.587 11.013-12.706v-52.195c0-6.119-4.957-11.837-11.013-12.706l-27.896-3.998c-6.058-.869-11.013 3.429-11.013 9.548z" fill="#333e48"/><path d="m387.91 413.164h26.903c9.381 0 16.987 7.607 16.987 16.988s-7.607 16.988-16.987 16.988h-26.903z" fill="#7d868c"/><path d="m387.913 413.16h12.878v33.974h-12.878z" opacity=".2"/><circle cx="175.439" cy="342.764" fill="#333e48" r="36.645"/><path d="m482.556 65.905v-10.28c0-13.671-11.122-24.793-24.793-24.793h-336.776c-13.671 0-24.793 11.122-24.793 24.793v10.28c-16.318.485-29.444 13.901-29.444 30.333v289.882c0 5.109 1.275 9.923 3.512 14.152h-4.499c-1.658-8.568-8.796-15.684-17.601-16.945l-27.896-3.998c-.896-.129-1.802-.194-2.694-.194-9.854 0-17.572 7.802-17.572 17.762v66.508c0 9.96 7.718 17.761 17.573 17.762h.002c.889 0 1.794-.065 2.691-.194l27.896-3.998c8.807-1.263 15.946-8.379 17.602-16.95h322.145c3.292 0 6.118-1.965 7.386-4.784h19.517c13.835 0 25.09-11.255 25.09-25.09 0-5.042-1.501-9.737-4.07-13.673h45.809c16.738 0 30.357-13.618 30.357-30.357v-289.882c.002-16.432-13.124-29.848-29.442-30.334zm-432.633 390.343c0 2.071-2.011 4.391-4.061 4.685l-27.895 3.998c-.136.019-.269.029-.393.029-.338 0-1.369-.001-1.369-1.557v-66.508c0-1.557 1.028-1.557 1.367-1.557.125 0 .258.011.394.029l27.896 3.998c2.049.294 4.061 2.614 4.061 4.686zm62.476-400.622c0-4.735 3.853-8.588 8.588-8.588h336.776c4.735 0 8.588 3.853 8.588 8.588v10.256h-353.952zm267.409 388.193h-313.679v-27.342h313.679zm35.005-4.784h-18.8v-17.769h18.8c4.898 0 8.885 3.985 8.885 8.885 0 4.898-3.986 8.884-8.885 8.884zm80.982-52.914c0 7.803-6.348 14.152-14.152 14.152h-384.536c-7.803 0-14.152-6.348-14.152-14.152v-289.882c0-7.803 6.348-14.152 14.152-14.152h171.249c-2.238 4.229-3.512 9.043-3.512 14.152v186.445c0 16.738 13.617 30.356 30.356 30.356h186.445c5.109 0 9.923-1.275 14.152-3.512v76.594h-.002zm0-103.437c0 7.802-6.348 14.15-14.152 14.15h-186.444c-7.802 0-14.15-6.348-14.15-14.15v-186.445c0-7.803 6.348-14.152 14.15-14.152h186.445c7.803 0 14.152 6.348 14.152 14.152v186.445zm-320.358 15.336c-24.674 0-44.747 20.073-44.747 44.747s20.073 44.748 44.747 44.748 44.747-20.074 44.747-44.748-20.073-44.747-44.747-44.747zm0 73.291c-15.738 0-28.542-12.804-28.542-28.543 0-15.738 12.804-28.542 28.542-28.542s28.542 12.804 28.542 28.542-12.805 28.543-28.542 28.543zm47.846-266.416h-95.689c-16.738 0-30.357 13.617-30.357 30.356v117.834c0 16.738 13.618 30.356 30.357 30.356h95.689c16.738 0 30.357-13.617 30.357-30.356v-117.834c-.002-16.738-13.62-30.356-30.357-30.356zm14.15 148.19c0 7.802-6.348 14.15-14.152 14.15h-95.689c-7.803 0-14.152-6.348-14.152-14.15v-117.834c0-7.802 6.348-14.15 14.152-14.15h95.689c7.803 0 14.152 6.348 14.152 14.15z" fill="#1e252b"/></svg>